Simulation
nRows=19
nColumns=15
endheader
time  TH_x TH_y TH_z SC_y  SC_z  SC_x  AC_y  AC_z  AC_x  GH_y  GH_z  GH_yy  EL_x  PS_y
1.3999999999999995  0.000000  0.000000  0.000000  -31.79770982041123  10.023241480138015  19.56716291073001  71.00539046971308  15.118202592403707  -1.9739192662230225  -0.7514103683260446  57.17230912898307  -29.984187961195605  24.514693802027303  120.000000
1.4279999999999995  0.000000  0.000000  0.000000  -32.51171802333051  10.308254403721191  20.56679404648807  71.46240329846762  14.954781143160229  -1.4924939877990644  -1.2487421197850896  57.04486500384823  -30.265453473292705  24.724655458701054  120.000000
1.4559999999999995  0.000000  0.000000  0.000000  -33.140458580470856  10.555833604724889  21.482429897100406  71.8551278763026  14.763696341317921  -1.0754147875614797  -1.6432949222711022  56.86677814546471  -30.545569366794155  24.899255065452657  120.000000
1.4839999999999995  0.000000  0.000000  0.000000  -33.661705421350405  10.765683736384197  22.29767588055526  72.17451312006607  14.546349949748182  -0.734471564909689  -1.9305597808475112  56.640115143991856  -30.819580783132793  25.037646919791644  120.000000
1.5119999999999996  0.000000  0.000000  0.000000  -34.05392635208744  10.935131126497955  22.99689937747117  72.41480445826807  14.305472515773014  -0.4815423574553734  -2.107942402310322  56.367322193278895  -31.083526835537228  25.139330059198105  120.000000
1.5399999999999994  0.000000  0.000000  0.000000  -34.304252952373965  11.060537849362806  23.569119275873085  72.57423967645266  14.04519274793298  -0.3271006816206179  -2.175287539774182  56.05324553436069  -31.3342854828928  25.20410396257681  120.000000
1.5679999999999994  0.000000  0.000000  0.000000  -34.40332926744918  11.135654121122283  24.003888872944525  72.6561522713156  13.770132065331333  -0.27916225455011845  -2.1355712540790925  55.70511965547744  -31.570242673470414  25.23162888370511  120.000000
1.5959999999999994  0.000000  0.000000  0.000000  -34.35175293440199  11.156245031244598  24.296370172242767  72.6644074864348  13.48484285587666  -0.34348598780106215  -1.9929987453303595  55.33125494484438  -31.791941121130787  25.221596048348065  120.000000
1.6239999999999994  0.000000  0.000000  0.000000  -34.1502933660631  11.120992210909769  24.440818235906324  72.59709751574265  13.191955556294827  -0.5231338236498364  -1.7509585539366426  54.942126171657314  -32.00319551395893  25.17465039905386  120.000000
1.6519999999999995  0.000000  0.000000  0.000000  -33.80961362690631  11.03223389592205  24.437915939201275  72.45206292660387  12.894508707076023  -0.8176714890932018  -1.413311202573324  54.54682036010105  -32.21040390991054  25.091648559183977  120.000000
1.6799999999999995  0.000000  0.000000  0.000000  -33.343437278373344  10.889384367220543  24.28848427983999  72.2319504843043  12.596577590763772  -1.2223399640535952  -0.9865364282265552  54.15570514507673  -32.4202002445365  24.97377890409985  120.000000
1.7079999999999993  0.000000  0.000000  0.000000  -32.77455539764596  10.692630879353615  24.00045647100182  71.9434412797375  12.30370000538269  -1.7291609881585004  -0.4778265430554155  53.776064168925615  -32.63954221740778  24.822667834906717  120.000000
1.7359999999999993  0.000000  0.000000  0.000000  -32.12291530477102  10.441330148638967  23.579808939900484  71.59344834057363  12.021598167408339  -2.326521364162644  0.10333854760866817  53.41503308593344  -32.87183855651052  24.640792606651512  120.000000
1.7639999999999993  0.000000  0.000000  0.000000  -31.41145075996029  10.13675536912376  23.036871667174974  71.18914210115364  11.755518714492938  -3.0013470343394832  0.746086810490276  53.07652426147915  -33.116400386096565  24.431376665001544  120.000000
1.7919999999999994  0.000000  0.000000  0.000000  -30.655446895945648  9.780965335954706  22.377744952815767  70.73495192217969  11.50930951737718  -3.7380815386418695  1.436949582997952  52.763206598727244  -33.36479529845637  24.198821804404663  120.000000
1.8199999999999994  0.000000  0.000000  0.000000  -29.867862180010537  9.378895548957331  21.60988042222626  70.23301795761651  11.284840472089696  -4.520230010013513  2.1603700291707297  52.47577974727789  -33.601230938235425  23.948663412459855  120.000000
1.8479999999999994  0.000000  0.000000  0.000000  -29.05321773467364  8.936235067828598  20.73771577618049  69.68281382709101  11.081751198161408  -5.329965976699195  2.899372025939091  52.21289421870575  -33.80209473531149  23.687302625196175  120.000000
1.8759999999999994  0.000000  0.000000  0.000000  -28.214312162894768  8.460973148408645  19.767786595125457  69.0816217045803  10.897145389695638  -6.149231937684507  3.6356248007347247  51.97178880195548  -33.93835991062319  23.421456040434656  120.000000
1.9039999999999992  0.000000  0.000000  0.000000  -27.34898265614729  7.96066266614143  18.70561044347265  68.4262201412383  10.726729534022335  -6.960421359167224  4.35121670190716  51.747026508185606  -33.97825298910879  23.156730341053454  120.000000
